<?xml version="1.0" encoding="UTF-8" standalone="no"?>
<svg
   xmlns:svg="http://www.w3.org/2000/svg"
   xmlns="http://www.w3.org/2000/svg"
   xmlns:sodipodi="http://sodipodi.sourceforge.net/DTD/sodipodi-0.dtd"
   xmlns:inkscape="http://www.inkscape.org/namespaces/inkscape"
   inkscape:version="1.1-dev (1:0.92.0+devel+202005110039+9ce7266)"
   sodipodi:docname="logout.svg"
   width="114.49268mm"
   height="95.579498mm"
   viewBox="0 0 114.49268 95.579498"
   version="1.1"
   id="svg836">
  <sodipodi:namedview
     inkscape:current-layer="svg836"
     inkscape:window-maximized="1"
     inkscape:window-y="27"
     inkscape:window-x="60"
     inkscape:cy="241.96345"
     inkscape:cx="92.54825"
     inkscape:zoom="1.0887604"
     fit-margin-bottom="5"
     fit-margin-right="5"
     fit-margin-top="5"
     fit-margin-left="18"
     lock-margins="false"
     showgrid="false"
     id="namedview6"
     inkscape:window-height="1016"
     inkscape:window-width="1860"
     inkscape:pageshadow="2"
     inkscape:pageopacity="0"
     guidetolerance="10"
     gridtolerance="10"
     objecttolerance="10"
     borderopacity="1"
     bordercolor="#666666"
     pagecolor="#ffffff" />
  <defs
     id="defs832" />
  <g
     id="layer1"
     transform="translate(-12.491341,-7.2224859)">
    <path
       style="fill:#5e656a;fill-opacity:1;stroke-width:0.0652121"
       d="m 60.71721,97.455951 c -0.46627,-0.209973 -1.10746,-0.503427 -1.42484,-0.652121 -0.3174,-0.148694 -0.58593,-0.270362 -0.59674,-0.270362 -0.0109,0 -0.26467,-0.11422 -0.56413,-0.253829 -0.29947,-0.139609 -1.14366,-0.523927 -1.87601,-0.854053 -0.73232,-0.330114 -1.61262,-0.73157 -1.95621,-0.892118 -0.34359,-0.160537 -0.83019,-0.381661 -1.08133,-0.491388 -0.25116,-0.109749 -0.67673,-0.301408 -0.94573,-0.425976 -0.269,-0.124569 -0.65049,-0.300454 -0.84776,-0.390845 -0.19726,-0.09042 -0.60368,-0.278063 -0.90313,-0.417046 -0.29947,-0.138971 -0.55451,-0.252686 -0.56676,-0.252686 -0.0123,0 -0.28078,-0.120372 -0.59674,-0.267495 -0.31595,-0.147123 -0.85325,-0.393393 -1.19398,-0.547261 -0.93127,-0.42055 -1.32866,-0.601389 -2.152,-0.979368 -0.41247,-0.189342 -1.21947,-0.555808 -1.79334,-0.814361 -0.57387,-0.258564 -1.38087,-0.625019 -1.79333,-0.814372 -1.34216,-0.616132 -3.03245,-1.386747 -4.79312,-2.185178 -0.53799,-0.243975 -1.21294,-0.551227 -1.49987,-0.682783 -1.22792,-0.562982 -1.52347,-0.675488 -1.94106,-0.738932 -0.65866,-0.100078 -1.19224,-0.380067 -1.76986,-0.928745 -0.98739,-0.93793 -1.56473,-2.191276 -1.82897,-3.970525 -0.0898,-0.604642 -0.10096,-3.438875 -0.10096,-25.600764 0,-22.007428 0.0117,-25.00388 0.0997,-25.631074 0.12345,-0.879409 0.24472,-1.356964 0.50437,-1.98618 0.7155,-1.73389 1.84709,-2.760519 3.27498,-2.971196 0.34534,-0.05097 0.49762,-0.106782 1.27273,-0.466602 0.269,-0.124877 1.28141,-0.587624 2.24981,-1.028333 0.96841,-0.440709 1.92214,-0.875333 2.11941,-0.965856 0.19727,-0.09052 1.51781,-0.691429 2.93455,-1.335377 1.41673,-0.643937 4.20455,-1.912926 6.19516,-2.819974 1.99061,-0.907038 3.9274,-1.787852 4.30402,-1.957375 0.37659,-0.169522 1.35967,-0.615725 2.18461,-0.991573 0.82493,-0.37585 1.64659,-0.749633 1.82593,-0.830643 0.17934,-0.08097 0.60084,-0.275888 0.93668,-0.433096 0.33583,-0.157197 0.62183,-0.285819 0.63555,-0.285819 0.0249,0 0.35573,-0.151001 1.72658,-0.788039 0.69366,-0.322336 0.74429,-0.33575 1.11983,-0.296498 0.46904,0.04899 1.18317,0.376321 1.62402,0.744304 1.08882,0.90885 1.79808,2.370598 2.04576,4.216214 0.0832,0.61991 0.0956,5.571462 0.0956,37.860524 0,33.155618 -0.0109,37.220401 -0.10075,37.827261 -0.1552,1.047843 -0.33413,1.644574 -0.73183,2.440633 -0.31679,0.634115 -0.56288,0.975929 -1.04372,1.449717 -0.46114,0.454387 -0.81314,0.682366 -1.33008,0.861468 -0.70944,0.245809 -0.78421,0.237877 -1.71718,-0.182278 z M 56.05453,57.874895 c 1.87506,-0.568749 3.21659,-1.983763 3.62074,-3.819051 0.15508,-0.70425 0.10678,-1.97581 -0.0981,-2.584031 -0.48215,-1.431097 -1.56502,-2.6365 -2.86428,-3.18843 -0.66985,-0.284534 -0.95186,-0.343935 -1.79954,-0.379046 -0.91825,-0.03801 -1.27258,0.01945 -2.13256,0.345681 -1.85163,0.702504 -3.18224,2.652947 -3.18224,4.664613 0,2.194956 1.35052,4.115055 3.4202,4.862667 0.84503,0.305242 2.20692,0.349031 3.03581,0.09755 z M 73.15645,90.36033 c -0.0638,-0.02571 -0.0815,-0.771033 -0.0815,-3.418485 v -3.385604 h 9.21954 c 7.65236,0 9.23195,-0.01494 9.2925,-0.08789 0.0527,-0.0635 0.0776,-2.2944 0.0895,-8.037408 l 0.0166,-7.949531 2.9201,-0.01702 2.92009,-0.01692 -0.022,8.559774 c -0.0238,9.294938 -0.002,8.722268 -0.37655,9.839717 -0.66716,1.990124 -2.17046,3.603267 -3.91506,4.201129 -1.04469,0.358008 -0.95333,0.355065 -10.85198,0.349901 -5.02135,-0.0022 -9.16639,-0.01956 -9.21123,-0.03769 z m 28.79168,-21.684102 -0.0168,-4.259784 -11.49366,-0.01648 -11.49365,-0.01648 V 53.721654 43.059809 l 11.49365,-0.01648 11.49366,-0.01648 0.0167,-4.646376 c 0.0124,-3.452245 0.036,-4.646376 0.0918,-4.646376 0.0413,0 0.86857,0.784995 1.83835,1.744425 0.9698,0.95944 1.85479,1.832465 1.96666,1.940072 0.11188,0.107552 1.00848,0.988937 1.99244,1.958528 0.98397,0.969591 3.50495,3.44929 5.60219,5.510437 2.09725,2.061148 4.72367,4.644421 5.83649,5.740602 1.11283,1.096182 2.17741,2.141366 2.3657,2.322622 0.1883,0.181256 0.34236,0.357271 0.34236,0.39113 0,0.03384 -0.44751,0.498419 -0.99447,1.032332 -0.54699,0.533913 -1.87487,1.839387 -2.95087,2.901039 -1.07599,1.061653 -3.54087,3.484225 -5.47747,5.383495 -1.93662,1.89926 -4.3723,4.292104 -5.41262,5.317427 -4.27039,4.208809 -5.00224,4.918792 -5.09091,4.938841 -0.0795,0.01791 -0.0952,-0.592984 -0.10965,-4.238799 z M 91.61763,38.850209 c -0.0213,-0.05548 -0.0203,-2.811405 0.002,-6.124338 0.0225,-3.312922 0.023,-6.070035 0.001,-6.12692 -0.0359,-0.09371 -0.89835,-0.103487 -9.21133,-0.104476 -5.04441,-4.94e-4 -9.2086,-0.0245 -9.25376,-0.05317 -0.0646,-0.04109 -0.0785,-0.766188 -0.0652,-3.406346 l 0.0169,-3.354206 h 9.6188 9.61881 l 0.58644,0.186255 c 1.04132,0.33074 1.73918,0.758904 2.51114,1.54067 0.94226,0.954243 1.55886,2.113615 1.93844,3.644793 0.0951,0.383572 0.10975,1.189331 0.13005,7.165338 l 0.023,6.733164 h -2.9389 c -2.59136,0 -2.94348,-0.01198 -2.9776,-0.100854 z"
       id="path907" />
  </g>
</svg>
